<?xml version="1.0" encoding="UTF-8" standalone="no"?>
<!-- Created with Inkscape (http://www.inkscape.org/) -->

<svg
   xmlns:dc="http://purl.org/dc/elements/1.1/"
   xmlns:cc="http://creativecommons.org/ns#"
   xmlns:rdf="http://www.w3.org/1999/02/22-rdf-syntax-ns#"
   xmlns:svg="http://www.w3.org/2000/svg"
   xmlns="http://www.w3.org/2000/svg"
   xmlns:sodipodi="http://sodipodi.sourceforge.net/DTD/sodipodi-0.dtd"
   xmlns:inkscape="http://www.inkscape.org/namespaces/inkscape"
   width="58.750629mm"
   height="57.215622mm"
   viewBox="0 0 208.17152 202.73252"
   id="svg4398"
   version="1.1"
   inkscape:version="0.92.1 r"
   sodipodi:docname="logo.svg"
   inkscape:export-filename="/home/david/Imágenes/buho programador/nuevo-buho/logo.png"
   inkscape:export-xdpi="38.009998"
   inkscape:export-ydpi="38.009998">
  <defs
     id="defs4400" />
  <sodipodi:namedview
     id="base"
     pagecolor="#ffffff"
     bordercolor="#666666"
     borderopacity="1.0"
     inkscape:pageopacity="0.0"
     inkscape:pageshadow="2"
     inkscape:zoom="2.648698"
     inkscape:cx="165.8284"
     inkscape:cy="75.016117"
     inkscape:document-units="px"
     inkscape:current-layer="g4216"
     showgrid="false"
     inkscape:window-width="1920"
     inkscape:window-height="1009"
     inkscape:window-x="0"
     inkscape:window-y="29"
     inkscape:window-maximized="1"
     fit-margin-top="1"
     fit-margin-left="1"
     fit-margin-right="1"
     fit-margin-bottom="1"
     inkscape:showpageshadow="false"
     showguides="true"
     inkscape:guide-bbox="true" />
  <metadata
     id="metadata4403">
    <rdf:RDF>
      <cc:Work
         rdf:about="">
        <dc:format>image/svg+xml</dc:format>
        <dc:type
           rdf:resource="http://purl.org/dc/dcmitype/StillImage" />
        <dc:title />
      </cc:Work>
    </rdf:RDF>
  </metadata>
  <g
     inkscape:label="Capa 1"
     inkscape:groupmode="layer"
     id="layer1"
     transform="translate(73.443553,36.791859)">
    <g
       id="g4216"
       transform="translate(11.200023,-54.982725)">
      <path
         style="fill:#4fc3f7;fill-opacity:0.94117647;fill-rule:evenodd;stroke:none;stroke-width:0.3393285px;stroke-linecap:butt;stroke-linejoin:miter;stroke-opacity:1"
         d="M 177.41992 109.77539 L 176.51367 110.94727 L 109.63281 115.62695 L 109.69336 118.83008 L 45.025391 114.30469 L 42.304688 110.7832 L 9.8515625 112.31445 L 16.298828 145.62109 L 28.095703 170.70703 L 68.830078 194.0918 L 94.835938 208.22852 L 106.9375 208.22852 L 107.20898 204.44336 L 112.49023 210.83984 L 112.69922 205.99219 L 112.78711 207.21875 L 124.88867 207.21875 L 150.89453 193.08203 L 191.62891 169.69727 L 203.42578 144.61328 L 209.87305 111.30664 L 192.67188 110.49414 L 193.26562 109.77539 L 186.88281 110.22266 L 177.41992 109.77539 z "
         transform="matrix(0.93750001,0,0,0.93750001,-84.643576,18.190866)"
         id="path4732-7" />
      <path
         style="fill:#bbdefb;fill-opacity:1;fill-rule:evenodd;stroke:none;stroke-width:0.3353284px;stroke-linecap:butt;stroke-linejoin:miter;stroke-opacity:1"
         d="m -4.1317171,201.94026 23.4051491,-27.34821 26.330796,27.87414 -24.509914,9.99262 -21.81277634,-8.94076"
         id="path4749"
         inkscape:connector-curvature="0" />
      <path
         style="fill:#4fc3f7;fill-opacity:1;fill-rule:evenodd;stroke:none;stroke-width:0.3393285px;stroke-linecap:butt;stroke-linejoin:miter;stroke-opacity:1"
         d="M 102.70312 6.7753906 L 77.830078 15.685547 L 75.914062 15.769531 L 76.167969 16.28125 L 44.253906 27.714844 L 44.601562 35.144531 L 102.70312 84.283203 L 102.70312 69.822266 L 109.30664 83.146484 L 109.3125 84.367188 L 167.41211 35.228516 L 167.75977 27.798828 L 141.93359 18.546875 L 143.05859 16.277344 L 134.57227 15.908203 L 109.3125 6.859375 L 109.3125 14.318359 L 102.70312 14.605469 L 102.70312 6.7753906 z "
         transform="matrix(0.93750001,0,0,0.93750001,-84.643576,18.190866)"
         id="path4635-6" />
      <path
         style="fill:#ffeb3b;fill-opacity:1;fill-rule:evenodd;stroke:none;stroke-width:0.31812048px;stroke-linecap:butt;stroke-linejoin:miter;stroke-opacity:1"
         d="m -52.275187,114.53078 41.28266,-42.760814 c 0,0 4.6125834,4.701452 5.3044718,6.044723 0.6918835,1.343273 8.994547,33.357911 8.994547,33.357911 l 2.667182,10.34177 -44.4110958,-0.93887 z"
         id="path4589-3"
         inkscape:connector-curvature="0" />
      <path
         style="fill:#fdd835;fill-opacity:1;fill-rule:evenodd;stroke:none;stroke-width:0.31812048px;stroke-linecap:butt;stroke-linejoin:miter;stroke-opacity:1"
         d="m -64.112208,121.08404 34.201282,-20.63512 13.837761,-19.25355 8.994547,-11.641689 -10.147696,-12.984956 -24.90797,17.686407 -25.599863,24.402769 -11.992724,12.984959 z"
         id="path4585-6"
         inkscape:connector-curvature="0" />
      <path
         style="fill:#ffee58;fill-opacity:1;fill-rule:evenodd;stroke:none;stroke-width:0.31812048px;stroke-linecap:butt;stroke-linejoin:miter;stroke-opacity:1"
         d="M -63.167919,99.449437 -26.513114,75.391398 -6.8943505,59.599045 H -46.562599 l -21.679165,13.65659 5.073845,26.193802 v 0"
         id="path4587-7"
         inkscape:connector-curvature="0" />
      <ellipse
         style="fill:#ffffff;fill-opacity:1;fill-rule:evenodd;stroke:none;stroke-width:17.4966259;stroke-linecap:round;stroke-linejoin:round;stroke-miterlimit:4;stroke-dasharray:none;stroke-opacity:1"
         id="path4591-5"
         cx="-27.309814"
         cy="97.683022"
         rx="10.926332"
         ry="10.131589" />
      <path
         style="fill:#fcd343;fill-opacity:1;fill-rule:evenodd;stroke:none;stroke-width:0.31812048px;stroke-linecap:butt;stroke-linejoin:miter;stroke-opacity:1"
         d="M 53.863234,115.55728 95.145892,72.79647 c 0,0 4.612586,4.701449 5.304478,6.044725 0.69188,1.343271 8.99454,33.357915 8.99454,33.357915 l 2.66719,10.34176 -44.4111,-0.93886 z"
         id="path4589"
         inkscape:connector-curvature="0" />
      <path
         style="fill:#ffa726;fill-opacity:1;fill-rule:evenodd;stroke:none;stroke-width:0.31812048px;stroke-linecap:butt;stroke-linejoin:miter;stroke-opacity:1"
         d="m 16.858371,150.95054 -10.7632534,-28.49509 24.1357794,0.63322 7.881407,1.23816 -10.816839,19.34162 z"
         id="path4633"
         inkscape:connector-curvature="0" />
      <path
         style="fill:#ff9800;fill-opacity:1;fill-rule:evenodd;stroke:none;stroke-width:0.31812048px;stroke-linecap:butt;stroke-linejoin:miter;stroke-opacity:1"
         d="m 16.505983,153.18592 2.935434,-4.11596 -1.304633,-22.47946 -12.3940519,-1.89968 0.3261583,21.52963 z"
         id="path4631"
         inkscape:connector-curvature="0" />
      <path
         style="fill:#ffca28;fill-opacity:1;fill-rule:evenodd;stroke:none;stroke-width:0.31812048px;stroke-linecap:butt;stroke-linejoin:miter;stroke-opacity:1"
         d="M 38.112304,124.32683 72.313584,103.69172 86.151345,84.438157 95.145892,72.79647 84.998196,59.811514 60.090225,77.497919 34.490366,101.90069 22.497643,114.88565 Z"
         id="path4585"
         inkscape:connector-curvature="0" />
      <ellipse
         style="fill:#ffffff;fill-opacity:1;fill-rule:evenodd;stroke:none;stroke-width:17.4966259;stroke-linecap:round;stroke-linejoin:round;stroke-miterlimit:4;stroke-dasharray:none;stroke-opacity:1"
         id="path4591"
         cx="78.828613"
         cy="98.709534"
         rx="10.926332"
         ry="10.131589" />
      <path
         style="fill:#ffee58;fill-opacity:1;fill-rule:evenodd;stroke:none;stroke-width:0.31812048px;stroke-linecap:butt;stroke-linejoin:miter;stroke-opacity:1"
         d="M 34.490366,101.9007 71.145165,77.842658 90.763931,62.050298 H 51.095683 L 29.416522,75.706893 34.490366,101.9007 v 0"
         id="path4587"
         inkscape:connector-curvature="0" />
      <ellipse
         cy="119.55713"
         cx="19.442184"
         id="path4189"
         style="fill:none;fill-opacity:1;fill-rule:evenodd;stroke:#546e7a;stroke-width:15.26978302;stroke-linecap:butt;stroke-linejoin:round;stroke-miterlimit:4;stroke-dasharray:none;stroke-opacity:1"
         rx="92.907562"
         ry="90.188065" />
      <path
         sodipodi:nodetypes="cccc"
         inkscape:connector-curvature="0"
         id="path4326-7"
         d="M -0.11261147,124.32683 H 38.183684 L 18.72625,157.58365 Z"
         style="fill:none;fill-opacity:1;fill-rule:evenodd;stroke:#546e7a;stroke-width:10.85851192;stroke-linecap:butt;stroke-linejoin:round;stroke-miterlimit:4;stroke-dasharray:none;stroke-opacity:1" />
      <path
         inkscape:connector-curvature="0"
         id="path4276-7-5"
         d="M 71.145165,77.842636 A 27.15384,46.807939 0 0 0 58.221177,84.173923 27.15384,46.807939 0 0 0 44.721382,124.86367 l 27.15363,-0.22985 27.153627,5e-4 A 27.15384,46.807939 0 0 0 85.413145,84.059018 27.15384,46.807939 0 0 0 71.145165,77.842653 Z m 6.818172,10.817254 a 9.0106912,8.7469385 0 0 1 9.010402,8.74731 9.0106912,8.7469385 0 0 1 -9.010402,8.74666 9.0106912,8.7469385 0 0 1 -9.011072,-8.74666 9.0106912,8.7469385 0 0 1 9.011072,-8.74731 z"
         style="fill:#37474f;fill-opacity:1;fill-rule:evenodd;stroke:none;stroke-width:8.48321247;stroke-linecap:round;stroke-linejoin:round;stroke-miterlimit:4;stroke-dasharray:none;stroke-opacity:1" />
      <path
         inkscape:connector-curvature="0"
         inkscape:export-ydpi="6"
         inkscape:export-xdpi="6"
         inkscape:export-filename="/home/david/workspace/nodejs/blog/project/static/images/path4276-7.png"
         id="path4276-7"
         d="m -34.993256,76.816153 a 27.15384,46.807939 0 0 0 -12.923987,6.330634 27.15384,46.807939 0 0 0 -13.499795,40.690403 l 27.153628,-0.23051 27.1536298,5e-4 A 27.15384,46.807939 0 0 0 -20.724599,83.031862 27.15384,46.807939 0 0 0 -34.993256,76.816153 Z m 6.939926,11.053632 a 9.1324575,8.8651408 0 0 1 9.132828,8.865497 9.1324575,8.8651408 0 0 1 -9.132828,8.864848 9.1324575,8.8651408 0 0 1 -9.132152,-8.864848 9.1324575,8.8651408 0 0 1 9.132152,-8.865497 z"
         style="fill:#37474f;fill-opacity:1;fill-rule:evenodd;stroke:none;stroke-width:8.48321247;stroke-linecap:round;stroke-linejoin:round;stroke-miterlimit:4;stroke-dasharray:none;stroke-opacity:1" />
      <path
         inkscape:connector-curvature="0"
         id="path4191"
         d="M -75.407688,123.48649 C 114.54742,123.01368 112.1121,122.54087 112.1121,122.54087"
         style="fill:none;fill-rule:evenodd;stroke:#546e7a;stroke-width:10.83656262;stroke-linecap:butt;stroke-linejoin:miter;stroke-miterlimit:4;stroke-dasharray:none;stroke-opacity:1" />
      <path
         sodipodi:nodetypes="cc"
         inkscape:connector-curvature="0"
         id="path4195-6"
         d="M 11.133426,116.68119 C 11.421875,49.361206 -67.158285,50.553225 -67.158285,50.553225"
         style="fill:none;fill-rule:evenodd;stroke:#546e7a;stroke-width:18.66306877;stroke-linecap:round;stroke-linejoin:miter;stroke-miterlimit:4;stroke-dasharray:none;stroke-opacity:1" />
      <path
         sodipodi:nodetypes="cc"
         inkscape:connector-curvature="0"
         id="path4195-6-7"
         d="M 24.679798,118.95563 C 24.391349,51.635645 102.9715,52.827664 102.9715,52.827664"
         style="fill:none;fill-rule:evenodd;stroke:#546e7a;stroke-width:18.66306877;stroke-linecap:round;stroke-linejoin:miter;stroke-miterlimit:4;stroke-dasharray:none;stroke-opacity:1" />
    </g>
  </g>
</svg>
